<svg height="512" viewBox="0 0 64 64" width="512" xmlns="http://www.w3.org/2000/svg"><g fill="#9bc9ff"><path d="m47 15v4 4l7 4v-8z"/><path d="m54 27 7-4v-8l-7 4z"/><path d="m32 19 7-4v-8l-7 4z"/><path d="m32 11-7-4v8l7 4z"/><path d="m3 15v8l7 4v-8z"/><path d="m17 19v-4l-7 4v8l7-4z"/><path d="m32 40 7-4v-8l-7 4z"/><path d="m25 28v8l7 4v-8z"/><path d="m54 53 7-4v-8l-7 4z"/><path d="m47 41v8l7 4v-8z"/><path d="m32 53v8l7-4v-3-5z"/><path d="m25 49v5 3l7 4v-8z"/><path d="m10 45v7-7l-7-4v8l7 4 7-4v-8z"/></g><path d="m61.5 23.868a1 1 0 0 0 .5-.868v-8a1 1 0 0 0 -.5-.868l-7-4a1 1 0 0 0 -.992 0l-7 4a1 1 0 0 0 -.508.868v2.382l-6-3v-7.382a1 1 0 0 0 -.5-.868l-7-4a1 1 0 0 0 -.992 0l-7 4a1 1 0 0 0 -.508.868v7.382l-6 3v-2.382a1 1 0 0 0 -.5-.868l-7-4a1 1 0 0 0 -.992 0l-7 4a1 1 0 0 0 -.508.868v8a1 1 0 0 0 .5.868l6.5 3.712v8.84l-6.5 3.712a1 1 0 0 0 -.5.868v8a1 1 0 0 0 .5.868l7 4a1 1 0 0 0 .992 0l6.481-3.7 7.027 4.387v2.445a1 1 0 0 0 .5.868l7 4a1 1 0 0 0 .992 0l7-4a1 1 0 0 0 .508-.868v-2.445l7.023-4.39 6.481 3.7a1 1 0 0 0 .992 0l7-4a1 1 0 0 0 .504-.865v-8a1 1 0 0 0 -.5-.868l-6.5-3.712v-8.84zm-6.5 1.409v-5.7l5-2.857v5.7zm-1 18.571-4.985-2.848 4.985-2.848 4.985 2.848zm-6-27.125 5 2.857v5.7l-5-2.86zm6-4.571 4.985 2.848-4.985 2.848-4.985-2.848zm-22 39.7-4.985-2.852 4.985-2.848 4.985 2.848zm-6-22.129 5 2.857v5.7l-5-2.86zm7 2.857 5-2.857v5.7l-5 2.857zm-1-1.732-4.985-2.848 4.985-2.848 4.985 2.848zm-6-22.125 5 2.857v5.7l-5-2.86zm7 2.857 5-2.857v5.7l-5 2.857zm-1-7.428 4.985 2.848-4.985 2.848-4.985-2.848zm-21 15.428 5-2.857v5.7l-5 2.857zm-1-7.428 4.985 2.848-4.985 2.848-4.985-2.848zm-6 4.571 5 2.857v5.7l-5-2.86zm6 27.125-4.985-2.848 4.985-2.848 4.985 2.848zm-6-1.125 5 2.857v5.7l-5-2.86zm7 8.554v-5.7l5-2.857v5.7zm7-2.832v-7.445a1 1 0 0 0 -.5-.868l-6.5-3.712v-8.84l6.5-3.712a1 1 0 0 0 .5-.868v-3.382l6.969-3.484 6.031 3.446v3.84l-6.5 3.712a1 1 0 0 0 -.5.868v8a1 1 0 0 0 .5.868l6.5 3.712v3.84l-6.5 3.712a1 1 0 0 0 -.5.868v3.2zm8 2.278 5 2.857v5.7l-5-2.86zm7 8.554v-5.7l5-2.857v5.7zm6.5-11.145-6.5-3.712v-3.84l6.5-3.712a1 1 0 0 0 .5-.868v-8a1 1 0 0 0 -.5-.868l-6.5-3.712v-3.84l6.031-3.446 6.969 3.484v3.382a1 1 0 0 0 .5.868l6.5 3.712v8.84l-6.5 3.712a1 1 0 0 0 -.5.868v7.445l-6 3.755v-3.2a1 1 0 0 0 -.5-.868zm8.5-5.409 5 2.857v5.7l-5-2.86zm7 8.554v-5.7l5-2.857v5.7z" fill="#1e81ce"/></svg>